#!OML:ASF F:\VICON\USERDATA\INSTALL\rory3\rory3.ASF
:FULLY-SPECIFIED
:DEGREES
143
root -10.7233 18.086 1.36503 176.65 -2.57866 171.755
lowerback 12.1298 -4.33175 -8.9636
upperback 1.42389 -7.03366 2.83818
thorax -3.83241 -3.45352 9.08011
lowerneck 7.67058 -22.9718 -16.5238
upperneck 35.4981 -31.2726 10.2537
head 16.09 -13.6819 2.64606
rclavicle -1.01579e-013 6.36111e-015
rhumerus -34.1168 -19.527 -73.0076
rradius 29.3294
rwrist 6.07685
rhand -16.1401 5.84835
rfingers 7.12502
rthumb 10.065 -23.891
lclavicle -1.01579e-013 6.36111e-015
lhumerus -28.3537 0.361355 84.365
lradius 42.7241
lwrist -0.868513
lhand -19.471 26.1494
lfingers 7.12502
lthumb 6.85054 56.0185
rfemur -23.1776 -1.36794 11.4875
rtibia 58.4046
rfoot -8.92146 2.64124
rtoes -6.73341
lfemur 4.88137 2.5173 -30.1454
ltibia 17.3423
lfoot -2.42783 -13.4931
ltoes -5.58078
144
root -10.7135 18.1044 1.46562 176.581 -2.9538 171.925
lowerback 11.9889 -4.3819 -8.80086
upperback 1.391 -7.06153 2.89204
thorax -3.79598 -3.46922 9.03467
lowerneck 7.72256 -22.9834 -16.5791
upperneck 35.4697 -31.2914 10.3155
head 16.0968 -13.6842 2.67796
rclavicle -4.6118e-014 2.22639e-014
rhumerus -33.874 -19.2236 -73.2379
rradius 29.4632
rwrist 5.76469
rhand -16.0982 5.56939
rfingers 7.12502
rthumb 10.1054 -24.168
lclavicle -4.6118e-014 2.22639e-014
lhumerus -28.852 0.210631 84.5624
lradius 42.4557
lwrist -0.835283
lhand -19.5093 26.0609
lfingers 7.12502
lthumb 6.81348 55.9312
rfemur -22.5111 -1.44337 11.6514
rtibia 59.8198
rfoot -8.80137 3.13832
rtoes -7.86185
lfemur 4.51118 2.46897 -29.8574
ltibia 17.5082
lfoot -1.9684 -13.82
ltoes -4.51806
145
root -10.7037 18.1218 1.56818 176.518 -3.33711 172.086
lowerback 11.8326 -4.39415 -8.61951
upperback 1.39291 -7.03759 2.91934
thorax -3.7308 -3.46323 8.9404
lowerneck 7.70986 -23.0143 -16.4851
upperneck 35.351 -31.3369 10.3785
head 16.0398 -13.6869 2.68577
rclavicle -1.49884e-013 3.49861e-014
rhumerus -33.6556 -19.3339 -73.3485
rradius 29.4934
rwrist 5.66568
rhand -16.0829 6.11228
rfingers 7.12502
rthumb 10.1202 -23.6243
lclavicle -1.49884e-013 3.49861e-014
lhumerus -29.2209 0.0346554 84.7343
lradius 42.0884
lwrist -0.973972
lhand -19.4933 25.5981
lfingers 7.12502
lthumb 6.82897 55.468
rfemur -21.7756 -1.53333 11.7973
rtibia 61.0922
rfoot -8.60532 3.68024
rtoes -8.87025
lfemur 4.17373 2.40909 -29.5865
ltibia 17.6043
lfoot -1.45665 -14.1132
ltoes -3.63216
146
root -10.6933 18.1365 1.66908 176.506 -3.72917 172.123
lowerback 11.7029 -4.40673 -8.51434
upperback 1.3029 -7.02148 2.92053
thorax -3.77037 -3.44617 8.87177
lowerneck 7.73867 -23.0794 -16.3996
upperneck 35.3257 -31.3637 10.21
head 15.9619 -13.7004 2.61526
rclavicle 6.14245e-014 -6.83819e-014
rhumerus -33.6892 -19.2942 -73.4072
rradius 29.7441
rwrist 5.63607
rhand -16.0475 6.58776
rfingers 7.12502
rthumb 10.1544 -23.1472
lclavicle 6.14245e-014 -6.83819e-014
lhumerus -29.7281 -0.151011 84.932
lradius 41.6956
lwrist -1.1782
lhand -19.5078 25.6595
lfingers 7.12502
lthumb 6.81494 55.5298
rfemur -21.0274 -1.65695 11.7996
rtibia 62.2133
rfoot -8.21248 4.2737
rtoes -10.0592
lfemur 3.82624 2.30837 -29.4632
ltibia 17.6102
lfoot -1.0599 -14.5356
ltoes -3.24727
147
root -10.6811 18.1539 1.76893 176.515 -4.14605 172.199
lowerback 11.5758 -4.43342 -8.37152
upperback 1.16999 -7.01774 2.93477
thorax -3.85694 -3.43024 8.80075
lowerneck 7.9121 -23.1427 -16.4734
upperneck 35.2937 -31.4062 10.0968
head 15.9056 -13.7394 2.5914
rclavicle -5.76476e-015 -1.74931e-014
rhumerus -33.7098 -18.9406 -73.5923
rradius 30.106
rwrist 5.32651
rhand -15.9349 6.22841
rfingers 7.12502
rthumb 10.263 -23.5012
lclavicle -5.76476e-015 -1.74931e-014
lhumerus -30.2751 -0.221157 85.123
lradius 41.2877
lwrist -1.52893
lhand -19.2532 26.2373
lfingers 7.12502
lthumb 7.06075 56.0996
rfemur -20.2127 -1.64026 11.8658
rtibia 63.1467
rfoot -7.80949 4.88874
rtoes -11.5364
lfemur 3.5101 2.22724 -29.2888
ltibia 17.4804
lfoot -0.589185 -15.0241
ltoes -2.29935
